<svg width="49" height="50" viewBox="0 0 49 50" fill="none" xmlns="http://www.w3.org/2000/svg">
<g id="Dark Mode" filter="url(#filter0_d_3063_122)">
<path id="Vector" d="M32.1079 10.6325C32.3222 10.0276 33.1777 10.0276 33.3919 10.6325L33.9779 12.2867C34.0466 12.4803 34.1988 12.6326 34.3924 12.7012L36.0464 13.2874C36.6511 13.5017 36.6511 14.3572 36.0464 14.5715L34.3924 15.1576C34.1988 15.2262 34.0466 15.3786 33.9779 15.5722L33.3919 17.2264C33.1777 17.8313 32.3222 17.8313 32.1079 17.2264L31.5219 15.5722C31.4533 15.3786 31.3011 15.2262 31.1075 15.1576L29.4535 14.5715C28.8488 14.3572 28.8488 13.5017 29.4535 13.2874L31.1075 12.7012C31.3011 12.6326 31.4533 12.4803 31.5219 12.2867L32.1079 10.6325Z" fill="white"/>
<path id="Vector_2" d="M38.5721 17.9824C38.7149 17.5791 39.2852 17.5791 39.4281 17.9824L39.8187 19.0851C39.8645 19.2142 39.9661 19.3157 40.0952 19.3614L41.1976 19.7523C41.6009 19.8952 41.6009 20.4654 41.1976 20.6083L40.0952 20.999C39.9661 21.0449 39.8645 21.1464 39.8187 21.2755L39.4281 22.3782C39.2852 22.7815 38.7149 22.7815 38.5721 22.3782L38.1814 21.2755C38.1356 21.1464 38.0341 21.0449 37.9049 20.999L36.8025 20.6083C36.3992 20.4654 36.3992 19.8952 36.8025 19.7523L37.9049 19.3614C38.0341 19.3157 38.1356 19.2142 38.1814 19.0851L38.5721 17.9824Z" fill="white"/>
<path id="Vector_3" d="M41.8207 0.833989C42.1309 -0.0416681 43.3691 -0.0416681 43.6793 0.833989L44.7427 3.83522C44.8418 4.1155 45.0624 4.33601 45.3427 4.43534L48.3433 5.49876C49.2189 5.80904 49.2189 7.04741 48.3433 7.35769L45.3427 8.42112C45.0624 8.52042 44.8418 8.74094 44.7427 9.02124L43.6793 12.0225C43.3691 12.8981 42.1309 12.8981 41.8207 12.0225L40.7573 9.02124C40.6582 8.74094 40.4376 8.52042 40.1573 8.42112L37.1567 7.35769C36.2811 7.04741 36.2811 5.80904 37.1567 5.49876L40.1573 4.43534C40.4376 4.33601 40.6582 4.1155 40.7573 3.83522L41.8207 0.833989Z" fill="white"/>
<path id="Vector_4" d="M9 23.7153C9 33.0867 16.7204 40.6836 26.244 40.6836C33.5758 40.6836 39.8387 36.1813 42.3333 29.8331C40.3576 30.7463 38.1513 31.2567 35.8242 31.2567C27.3587 31.2567 20.4961 24.5038 20.4961 16.1737C20.4961 12.6898 21.6964 9.48184 23.7123 6.92834C15.3889 8.13341 9 15.1901 9 23.7153Z" stroke="white" stroke-width="1.5" stroke-linecap="round" stroke-linejoin="round"/>
</g>
<defs>
<filter id="filter0_d_3063_122" x="0.25" y="0.177246" width="48.75" height="49.2563" filterUnits="userSpaceOnUse" color-interpolation-filters="sRGB">
<feFlood flood-opacity="0" result="BackgroundImageFix"/>
<feColorMatrix in="SourceAlpha" type="matrix" values="0 0 0 0 0 0 0 0 0 0 0 0 0 0 0 0 0 0 127 0" result="hardAlpha"/>
<feOffset dx="-4" dy="4"/>
<feGaussianBlur stdDeviation="2"/>
<feComposite in2="hardAlpha" operator="out"/>
<feColorMatrix type="matrix" values="0 0 0 0 1 0 0 0 0 1 0 0 0 0 1 0 0 0 0.33 0"/>
<feBlend mode="normal" in2="BackgroundImageFix" result="effect1_dropShadow_3063_122"/>
<feBlend mode="normal" in="SourceGraphic" in2="effect1_dropShadow_3063_122" result="shape"/>
</filter>
</defs>
</svg>
