<svg width="45" height="40" viewBox="0 0 45 40" fill="none" xmlns="http://www.w3.org/2000/svg">
<path id="Vector" d="M9.75434 2.85623C14.9135 6.72938 20.4627 14.5825 22.5001 18.797C24.5377 14.5828 30.0866 6.72931 35.2459 2.85623C38.9685 0.0615097 45 -2.10088 45 4.77996C45 6.15416 44.2121 16.3239 43.75 17.975C42.1438 23.7151 36.2906 25.1791 31.0841 24.293C40.1849 25.8419 42.5001 30.9725 37.5002 36.1031C28.0045 45.8471 23.8521 33.6583 22.7877 30.5351C22.5926 29.9625 22.5013 29.6947 22.5 29.9224C22.4986 29.6947 22.4074 29.9625 22.2123 30.5351C21.1483 33.6583 16.996 45.8474 7.49975 36.1031C2.49981 30.9725 4.81489 25.8416 13.9159 24.293C8.70923 25.1791 2.85601 23.7151 1.24998 17.975C0.787868 16.3238 0 6.15401 0 4.77996C0 -2.10088 6.03167 0.0615097 9.75408 2.85623H9.75434Z" fill="#1185FE" style="fill:#1185FE;fill:color(display-p3 0.0667 0.5216 0.9961);fill-opacity:1;"/>
</svg>
