<svg width="114" height="30" viewBox="0 0 114 30" fill="none" xmlns="http://www.w3.org/2000/svg">
<g filter="url(#filter0_i_3764_208)">
<path d="M3 9.53674e-07H6V3H3V9.53674e-07ZM0 9.53674e-07H3V3H0V9.53674e-07ZM0 3H3V6H0V3ZM0 6H3V9H0V6ZM0 9H3V12H0V9ZM0 12H3V15H0V12ZM0 15H3V18H0V15ZM0 18H3V21H0V18ZM0 21H3V24H0V21ZM0 24H3V27H0V24ZM0 27H3V30H0V27ZM3 27H6V30H3V27ZM3 24H6V27H3V24ZM3 21H6V24H3V21ZM3 18H6V21H3V18ZM3 15H6V18H3V15ZM3 12H6V15H3V12ZM3 9H6V12H3V9ZM3 6H6V9H3V6ZM3 3H6V6H3V3ZM6 15H9V18H6V15ZM9 15H12V18H9V15ZM9 12H12V15H9V12ZM6 12H9V15H6V12ZM9 9H12V12H9V9ZM12 9H15V12H12V9ZM12 6H15V9H12V6ZM12 3H15V6H12V3ZM12 9.53674e-07H15V3H12V9.53674e-07ZM15 9.53674e-07H18V3H15V9.53674e-07ZM15 3H18V6H15V3ZM15 6H18V9H15V6ZM9 18H12V21H9V18ZM12 18H15V21H12V18ZM12 21H15V24H12V21ZM12 24H15V27H12V24ZM12 27H15V30H12V27ZM15 27H18V30H15V27ZM15 24H18V27H15V24ZM15 21H18V24H15V21ZM15 18H18V21H15V18ZM12 15H15V18H12V15ZM43.48 30H40.48V27H43.48V30ZM43.48 27H40.48V24H43.48V27ZM40.48 27H37.48V24H40.48V27ZM37.48 30H34.48V27H37.48V30ZM34.48 30H31.48V27H34.48V30ZM31.48 30H28.48V27H31.48V30ZM31.48 27H28.48V24H31.48V27ZM34.48 27H31.48V24H34.48V27ZM28.48 27H25.48V24H28.48V27ZM28.48 24H25.48V21H28.48V24ZM28.48 12H25.48V9H28.48V12ZM31.48 12H28.48V9H31.48V12ZM31.48 24H28.48V21H31.48V24ZM34.48 12H31.48V9H34.48V12ZM31.48 9H28.48V6H31.48V9ZM34.48 9H31.48V6H34.48V9ZM37.48 9H34.48V6H37.48V9ZM40.48 9H37.48V6H40.48V9ZM43.48 9H40.48V6H43.48V9ZM43.48 12H40.48V9H43.48V12ZM40.48 12H37.48V9H40.48V12ZM43.48 15H40.48V12H43.48V15ZM46.48 12H43.48V9H46.48V12ZM46.48 15H43.48V12H46.48V15ZM46.48 18H43.48V15H46.48V18ZM46.48 21H43.48V18H46.48V21ZM46.48 24H43.48V21H46.48V24ZM46.48 27H43.48V24H46.48V27ZM43.48 24H40.48V21H43.48V24ZM43.48 21H40.48V18H43.48V21ZM43.48 18H40.48V15H43.48V18ZM37.48 12H34.48V9H37.48V12ZM37.48 27H34.48V24H37.48V27ZM43.48 27H46.48V30H43.48V27ZM37.48 15H40.48V18H37.48V15ZM34.48 15H37.48V18H34.48V15ZM31.48 15H34.48V18H31.48V15ZM28.48 15H31.48V18H28.48V15ZM25.48 18H28.48V21H25.48V18ZM28.48 18H31.48V21H28.48V18ZM37.48 18H40.48V21H37.48V18ZM34.48 18H37.48V21H34.48V18ZM31.48 18H34.48V21H31.48V18ZM53.9678 9H56.9678V12H53.9678V9ZM56.9678 12H59.9678V15H56.9678V12ZM53.9678 12H56.9678V15H53.9678V12ZM53.9678 15H56.9678V18H53.9678V15ZM56.9678 15H59.9678V18H56.9678V15ZM56.9678 18H59.9678V21H56.9678V18ZM59.9678 18H62.9678V21H59.9678V18ZM62.9678 18H65.9678V21H62.9678V18ZM65.9678 15H68.9678V18H65.9678V15ZM62.9678 15H65.9678V18H62.9678V15ZM59.9678 15H62.9678V18H59.9678V15ZM65.9678 18H68.9678V21H65.9678V18ZM68.9678 18H71.9678V21H68.9678V18ZM68.9678 21H71.9678V24H68.9678V21ZM65.9678 21H68.9678V24H65.9678V21ZM65.9678 24H68.9678V27H65.9678V24ZM68.9678 24H71.9678V27H68.9678V24ZM65.9678 27H68.9678V30H65.9678V27ZM62.9678 24H65.9678V27H62.9678V24ZM59.9678 24H62.9678V27H59.9678V24ZM56.9678 24H59.9678V27H56.9678V24ZM53.9678 24H56.9678V27H53.9678V24ZM56.9678 27H59.9678V30H56.9678V27ZM59.9678 27H62.9678V30H59.9678V27ZM62.9678 27H65.9678V30H62.9678V27ZM68.9678 9H71.9678V12H68.9678V9ZM65.9678 9H68.9678V12H65.9678V9ZM65.9678 6H68.9678V9H65.9678V6ZM62.9678 6H65.9678V9H62.9678V6ZM59.9678 6H62.9678V9H59.9678V6ZM56.9678 6H59.9678V9H56.9678V6ZM56.9678 9H59.9678V12H56.9678V9ZM59.9678 9H62.9678V12H59.9678V9ZM62.9678 9H65.9678V12H62.9678V9ZM97.4478 30H94.4478V27H97.4478V30ZM97.4478 27H94.4478V24H97.4478V27ZM94.4478 27H91.4478V24H94.4478V27ZM91.4478 30H88.4478V27H91.4478V30ZM88.4478 30H85.4478V27H88.4478V30ZM85.4478 30H82.4478V27H85.4478V30ZM85.4478 27H82.4478V24H85.4478V27ZM88.4478 27H85.4478V24H88.4478V27ZM82.4478 27H79.4478V24H82.4478V27ZM82.4478 24H79.4478V21H82.4478V24ZM82.4478 12H79.4478V9H82.4478V12ZM85.4478 12H82.4478V9H85.4478V12ZM85.4478 24H82.4478V21H85.4478V24ZM88.4478 12H85.4478V9H88.4478V12ZM85.4478 9H82.4478V6H85.4478V9ZM88.4478 9H85.4478V6H88.4478V9ZM91.4478 9H88.4478V6H91.4478V9ZM94.4478 9H91.4478V6H94.4478V9ZM97.4478 9H94.4478V6H97.4478V9ZM97.4478 12H94.4478V9H97.4478V12ZM94.4478 12H91.4478V9H94.4478V12ZM97.4478 15H94.4478V12H97.4478V15ZM100.448 12H97.4478V9H100.448V12ZM100.448 15H97.4478V12H100.448V15ZM100.448 18H97.4478V15H100.448V18ZM100.448 21H97.4478V18H100.448V21ZM100.448 24H97.4478V21H100.448V24ZM100.448 27H97.4478V24H100.448V27ZM97.4478 24H94.4478V21H97.4478V24ZM97.4478 21H94.4478V18H97.4478V21ZM97.4478 18H94.4478V15H97.4478V18ZM91.4478 12H88.4478V9H91.4478V12ZM91.4478 27H88.4478V24H91.4478V27ZM97.4478 27H100.448V30H97.4478V27ZM91.4478 15H94.4478V18H91.4478V15ZM88.4478 15H91.4478V18H88.4478V15ZM85.4478 15H88.4478V18H85.4478V15ZM82.4478 15H85.4478V18H82.4478V15ZM79.4478 18H82.4478V21H79.4478V18ZM82.4478 18H85.4478V21H82.4478V18ZM91.4478 18H94.4478V21H91.4478V18ZM88.4478 18H91.4478V21H88.4478V18ZM85.4478 18H88.4478V21H85.4478V18ZM107.936 9.53674e-07H113.936V6H107.936V9.53674e-07ZM107.936 9H113.936V30H107.936V9Z" fill="url(#paint0_linear_3764_208)" style=""/>
</g>
<defs>
<filter id="filter0_i_3764_208" x="0" y="0" width="113.936" height="34" filterUnits="userSpaceOnUse" color-interpolation-filters="sRGB">
<feFlood flood-opacity="0" result="BackgroundImageFix"/>
<feBlend mode="normal" in="SourceGraphic" in2="BackgroundImageFix" result="shape"/>
<feColorMatrix in="SourceAlpha" type="matrix" values="0 0 0 0 0 0 0 0 0 0 0 0 0 0 0 0 0 0 127 0" result="hardAlpha"/>
<feOffset dy="4"/>
<feGaussianBlur stdDeviation="2"/>
<feComposite in2="hardAlpha" operator="arithmetic" k2="-1" k3="1"/>
<feColorMatrix type="matrix" values="0 0 0 0 0 0 0 0 0 0 0 0 0 0 0 0 0 0 0.25 0"/>
<feBlend mode="normal" in2="shape" result="effect1_innerShadow_3764_208"/>
</filter>
<linearGradient id="paint0_linear_3764_208" x1="2.96551e-08" y1="14.8182" x2="112.631" y2="37" gradientUnits="userSpaceOnUse">
<stop stop-color="#2997FF" style="stop-color:#2997FF;stop-color:color(display-p3 0.1608 0.5922 1.0000);stop-opacity:1;"/>
<stop offset="0.505" stop-color="#C74FFF" style="stop-color:#C74FFF;stop-color:color(display-p3 0.7804 0.3098 1.0000);stop-opacity:1;"/>
<stop offset="1" stop-color="#FF5500" style="stop-color:#FF5500;stop-color:color(display-p3 1.0000 0.3333 0.0000);stop-opacity:1;"/>
</linearGradient>
</defs>
</svg>
