<svg xmlns="http://www.w3.org/2000/svg" fill="none" class="dark" viewBox="0 0 57 57"><g filter="url(#a)"><path fill="#fff" d="M36.73 12.39c.257-.717 1.283-.717 1.54 0l.703 1.96c.083.229.266.41.498.49l1.985.695a.804.804 0 0 1 0 1.522l-1.985.695a.81.81 0 0 0-.497.49l-.704 1.961c-.257.717-1.283.717-1.54 0l-.704-1.96a.81.81 0 0 0-.497-.491l-1.985-.695a.804.804 0 0 1 0-1.522l1.985-.694a.81.81 0 0 0 .497-.491zM44.487 21.1c.17-.479.855-.479 1.027 0l.468 1.306a.54.54 0 0 0 .332.327l1.323.463a.536.536 0 0 1 0 1.015l-1.323.463a.54.54 0 0 0-.331.328l-.47 1.306c-.17.478-.855.478-1.026 0l-.47-1.306a.54.54 0 0 0-.331-.328l-1.323-.463a.536.536 0 0 1 0-1.014l1.323-.464a.54.54 0 0 0 .332-.327zM48.385.778c.372-1.037 1.858-1.037 2.23 0l1.276 3.557c.12.332.384.593.72.71l3.601 1.261c1.05.368 1.05 1.835 0 2.203l-3.6 1.26a1.18 1.18 0 0 0-.72.711l-1.277 3.557c-.372 1.037-1.858 1.037-2.23 0l-1.276-3.557a1.18 1.18 0 0 0-.72-.711l-3.601-1.26c-1.05-.368-1.05-1.835 0-2.203l3.6-1.26c.337-.118.602-.38.72-.711z"/><path stroke="#fff" stroke-linecap="round" stroke-linejoin="round" stroke-width="1.5" d="M9 27.893C9 38.998 18.265 48 29.693 48 38.49 48 46.006 42.665 49 35.142a18.8 18.8 0 0 1-7.81 1.687c-10.16 0-18.395-8.002-18.395-17.873 0-4.129 1.44-7.93 3.86-10.956C16.667 9.428 9 17.79 9 27.893"/></g><defs><filter id="a" width="56.75" height="56.75" x=".25" y="0" color-interpolation-filters="sRGB" filterUnits="userSpaceOnUse"><feFlood flood-opacity="0" result="BackgroundImageFix"/><feColorMatrix in="SourceAlpha" result="hardAlpha" values="0 0 0 0 0 0 0 0 0 0 0 0 0 0 0 0 0 0 127 0"/><feOffset dx="-4" dy="4"/><feGaussianBlur stdDeviation="2"/><feComposite in2="hardAlpha" operator="out"/><feColorMatrix values="0 0 0 0 1 0 0 0 0 1 0 0 0 0 1 0 0 0 0.5 0"/><feBlend in2="BackgroundImageFix" result="effect1_dropShadow_3268_130"/><feBlend in="SourceGraphic" in2="effect1_dropShadow_3268_130" result="shape"/></filter></defs></svg>