<svg xmlns="http://www.w3.org/2000/svg" fill="none" class="light" viewBox="0 0 56 56"><g filter="url(#a)"><path fill="#08081F" d="M32 11.077c-7.125 0-12.923 5.798-12.923 12.923S24.875 36.923 32 36.923 44.923 31.125 44.923 24 39.125 11.077 32 11.077m0 22.154A9.23 9.23 0 0 1 22.77 24 9.23 9.23 0 0 1 32 14.77 9.23 9.23 0 0 1 41.23 24 9.23 9.23 0 0 1 32 33.23m0-25.846c1.02 0 1.846-.827 1.846-1.847V1.846a1.847 1.847 0 0 0-3.692 0v3.692c0 1.02.827 1.847 1.846 1.847m0 33.23c-1.02 0-1.846.827-1.846 1.846v3.693a1.847 1.847 0 0 0 3.692 0V42.46c0-1.019-.827-1.846-1.846-1.846M46.358 12.25l2.61-2.61a1.845 1.845 0 1 0-2.61-2.611l-2.61 2.61a1.845 1.845 0 1 0 2.61 2.611m-28.716 23.5-2.61 2.61a1.845 1.845 0 1 0 2.61 2.611l2.61-2.61a1.845 1.845 0 1 0-2.61-2.61M15.385 24c0-1.02-.827-1.846-1.846-1.846H9.846a1.847 1.847 0 0 0 0 3.692h3.693c1.019 0 1.846-.827 1.846-1.846m38.769-1.846H50.46a1.847 1.847 0 0 0 0 3.692h3.693a1.847 1.847 0 0 0 0-3.692M17.639 12.25a1.845 1.845 0 1 0 2.61-2.61l-2.61-2.611a1.845 1.845 0 1 0-2.61 2.61zm28.722 23.498a1.846 1.846 0 1 0-2.61 2.61l2.61 2.61a1.845 1.845 0 1 0 2.61-2.61z"/></g><defs><filter id="a" width="56" height="56" x="0" y="0" color-interpolation-filters="sRGB" filterUnits="userSpaceOnUse"><feFlood flood-opacity="0" result="BackgroundImageFix"/><feColorMatrix in="SourceAlpha" result="hardAlpha" values="0 0 0 0 0 0 0 0 0 0 0 0 0 0 0 0 0 0 127 0"/><feOffset dx="-4" dy="4"/><feGaussianBlur stdDeviation="2"/><feComposite in2="hardAlpha" operator="out"/><feColorMatrix values="0 0 0 0 0 0 0 0 0 0 0 0 0 0 0 0 0 0 0.25 0"/><feBlend in2="BackgroundImageFix" result="effect1_dropShadow_3268_155"/><feBlend in="SourceGraphic" in2="effect1_dropShadow_3268_155" result="shape"/></filter></defs></svg>