<svg width="35" height="42" viewBox="0 0 35 42" fill="none" xmlns="http://www.w3.org/2000/svg">
<path id="Vector" d="M32.9861 10.3277C30.981 9.89875 29.1652 8.84057 27.8036 7.30739C26.442 5.77421 25.6057 3.84619 25.4166 1.8044V0.918945H18.4996V28.3701C18.4953 29.5854 18.1103 30.7688 17.3988 31.754C16.6873 32.7393 15.6849 33.4768 14.5326 33.863C13.3803 34.2491 12.1359 34.2645 10.9744 33.907C9.81286 33.5495 8.79255 32.8371 8.05682 31.8698C7.30967 30.8863 6.8952 29.6904 6.87353 28.4555C6.85186 27.2206 7.2241 26.0109 7.93628 25.0018C8.64846 23.9927 9.66356 23.2367 10.8344 22.8434C12.0052 22.4501 13.2708 22.4399 14.4478 22.8144V15.787C11.8232 15.4242 9.15092 15.8908 6.80463 17.1215C4.45834 18.3523 2.55542 20.2856 1.36204 22.6512C0.168658 25.0167 -0.255494 27.6961 0.148912 30.3145C0.553317 32.933 1.76605 35.3595 3.61749 37.2548C5.38309 39.0613 7.64699 40.3008 10.1202 40.8149C12.5934 41.3291 15.1637 41.0945 17.503 40.1413C19.8423 39.1881 21.8445 37.5594 23.254 35.4632C24.6635 33.3669 25.4164 30.8982 25.4166 28.3721V14.3454C28.212 16.3438 31.5637 17.4154 35 17.4093V10.5365C34.3233 10.5373 33.6483 10.4673 32.9861 10.3277Z" fill="white" style="fill:white;fill-opacity:1;"/>
</svg>
